<svg width="20" height="20" viewBox="0 0 20 20" fill="none" xmlns="http://www.w3.org/2000/svg">
  <path fill-rule="evenodd" clip-rule="evenodd" d="M10 0C4.47715 0 0 4.47715 0 10C0 15.5228 4.47715 20 10 20C15.5228 20 20 15.5228 20 10C20 4.47715 15.5228 0 10 0ZM10 1.53846C5.32682 1.53846 1.53846 5.32682 1.53846 10C1.53846 14.6732 5.32682 18.4615 10 18.4615C14.6732 18.4615 18.4615 14.6732 18.4615 10C18.4615 5.32682 14.6732 1.53846 10 1.53846Z" fill="#DEDEDE"/>
  <path fill-rule="evenodd" clip-rule="evenodd" d="M0.117843 11.5307C0.389482 13.2844 1.12293 14.9343 2.24289 16.3109L3.43609 15.3401C2.24974 13.8837 1.53846 12.0249 1.53846 10C1.53846 5.71774 4.71954 2.17846 8.84753 1.61629L8.63816 0.0931702C6.88003 0.334851 5.2179 1.04004 3.82237 2.13636C2.42685 3.23268 1.34821 4.68062 0.697185 6.33155C0.0461603 7.98248 -0.153796 9.77692 0.117843 11.5307Z" fill="#292D32"/>
</svg>
